<?xml version="1.0" encoding="iso-8859-1"?>
<!-- Generator: Adobe Illustrator 19.0.0, SVG Export Plug-In . SVG Version: 6.00 Build 0)  -->
<svg version="1.1" id="Layer_1" xmlns="http://www.w3.org/2000/svg" xmlns:xlink="http://www.w3.org/1999/xlink" x="0px" y="0px"
	 viewBox="0 0 512.001 512.001" style="enable-background:new 0 0 512.001 512.001;" xml:space="preserve">
<path style="fill:#D3CBA9;" d="M242.242,386.783h-25.958c-32.277,0-63.948-8.772-91.625-25.378l-92.236-55.342
	C12.308,293.994,0,272.255,0,248.798v-17.841V113.199c0-21.024,17.044-38.068,38.068-38.068l0,0
	c16.996,0,31.934,11.267,36.604,27.61l34.326,120.143c1.366,4.778,5.732,8.073,10.702,8.073h58.387h92.198h61.986
	c56.977,0,110.513,27.262,144.026,73.342l30.885,42.467c3.132,4.306,4.819,9.495,4.819,14.82l0,0
	c0,13.916-11.282,25.197-25.197,25.197H381.059H242.242z"/>
<path style="fill:#E8DEB3;" d="M0.758,258.783C0.263,255.505,0,252.171,0,248.798v-17.841V113.199
	c0-21.024,17.044-38.068,38.068-38.068l0,0c16.996,0,31.934,11.267,36.604,27.61l34.326,120.144
	c1.366,4.778,5.732,8.073,10.702,8.073h58.387h92.197h61.987c3.676,0,7.338,0.114,10.98,0.338
	c17.666,1.091,16.711,27.488-0.988,27.488H0.758V258.783z"/>
<path style="fill:#5B452E;" d="M378.435,297.74c0,6.147-4.983,11.13-11.13,11.13H178.087c-6.147,0-11.13-4.983-11.13-11.13
	c0-6.147,4.983-11.13,11.13-11.13h189.217C373.452,286.609,378.435,291.592,378.435,297.74z M402.922,286.609h-2.226
	c-6.147,0-11.13,4.983-11.13,11.13c0,6.147,4.983,11.13,11.13,11.13h2.226c6.147,0,11.13-4.983,11.13-11.13
	C414.052,291.592,409.069,286.609,402.922,286.609z M135.791,286.609h-2.226c-6.147,0-11.13,4.983-11.13,11.13
	c0,6.147,4.983,11.13,11.13,11.13h2.226c6.147,0,11.13-4.983,11.13-11.13C146.922,291.592,141.939,286.609,135.791,286.609z"/>
<path style="fill:#B5AF93;" d="M507.181,346.766c3.132,4.306,4.819,9.495,4.819,14.82l0,0c0,13.916-11.281,25.197-25.197,25.197
	H381.058H242.242h-25.958c-32.277,0-63.948-8.772-91.625-25.378l0,0c-11.569-6.941-6.647-24.708,6.844-24.708h368.355
	L507.181,346.766z"/>
<path style="fill:#9E9882;" d="M244.133,384.849l-73.681-193.414c-7.059-18.531,6.627-38.391,26.457-38.391l0,0
	c9.144,0,17.724,4.415,23.039,11.856l161.111,221.883L244.133,384.849z"/>
<path style="fill:#FF4800;" d="M389.565,403.479L389.565,403.479c0,18.442-14.949,33.391-33.391,33.391H267.13
	c-18.442,0-33.391-14.949-33.391-33.391l0,0c0-18.442,14.949-33.391,33.391-33.391h89.043
	C374.616,370.087,389.565,385.037,389.565,403.479z"/>
<path style="fill:#C92B00;" d="M233.739,403.479h155.826c0,18.442-14.949,33.391-33.391,33.391H267.13
	C248.688,436.87,233.739,421.921,233.739,403.479z"/>
<g>
</g>
<g>
</g>
<g>
</g>
<g>
</g>
<g>
</g>
<g>
</g>
<g>
</g>
<g>
</g>
<g>
</g>
<g>
</g>
<g>
</g>
<g>
</g>
<g>
</g>
<g>
</g>
<g>
</g>
</svg>
